<?xml version="1.0" standalone="no"?>
<!DOCTYPE svg PUBLIC "-//W3C//DTD SVG 20010904//EN"
 "http://www.w3.org/TR/2001/REC-SVG-20010904/DTD/svg10.dtd">
<svg version="1.0" xmlns="http://www.w3.org/2000/svg"
 width="1280.000000pt" height="763.000000pt" viewBox="0 0 1280.000000 763.000000"
 preserveAspectRatio="xMidYMid meet">
<metadata>
Created by potrace 1.15, written by Peter Selinger 2001-2017
</metadata>
<g transform="translate(0.000000,763.000000) scale(0.100000,-0.100000)"
fill="#000000" stroke="none">
<path d="M247 7573 c-3 -16 -17 -82 -31 -148 -83 -392 -154 -909 -192 -1395
-22 -271 -25 -962 -6 -1185 60 -694 181 -1179 402 -1615 123 -240 265 -435
441 -605 118 -114 150 -138 499 -380 1295 -897 2200 -1425 3055 -1780 994
-413 1883 -551 2643 -409 352 65 1010 236 1522 394 1521 471 2684 1053 3266
1634 176 176 260 288 349 465 69 138 71 145 200 826 218 1153 322 1854 381
2565 22 261 25 825 6 985 -19 153 -55 326 -87 415 -27 74 -123 255 -131 247
-3 -2 -54 -152 -113 -333 -399 -1207 -703 -1924 -896 -2114 -109 -107 -263
-209 -485 -320 -376 -188 -878 -359 -1233 -420 -217 -37 -185 -47 -510 157
-672 420 -985 567 -1372 646 -157 31 -463 31 -611 -1 -313 -67 -624 -235 -775
-417 l-61 -74 -50 59 c-28 32 -93 98 -146 146 -79 72 -115 96 -206 140 -257
123 -480 169 -811 168 -223 -1 -329 -11 -550 -55 -556 -110 -1209 -383 -1807
-754 l-121 -76 -66 22 c-218 72 -574 270 -936 521 -315 218 -888 657 -937 719
-110 137 -314 867 -498 1778 -22 112 -43 208 -46 213 -3 4 -22 8 -43 8 -34 0
-39 -3 -44 -27z m6873 -3153 c672 -52 1270 -168 1856 -361 l152 -50 -13 -42
c-133 -439 -392 -796 -680 -937 -142 -69 -216 -85 -400 -84 l-160 0 -295 76
c-505 131 -731 168 -1008 168 -252 0 -410 -28 -727 -125 -311 -95 -540 -122
-792 -94 -444 49 -785 298 -992 723 -55 112 -121 281 -121 310 0 7 74 36 178
69 602 193 1284 314 1997 357 183 10 820 4 1005 -10z"/>
</g>
</svg>
