<?xml version="1.0" standalone="no"?>
<!DOCTYPE svg PUBLIC "-//W3C//DTD SVG 20010904//EN"
 "http://www.w3.org/TR/2001/REC-SVG-20010904/DTD/svg10.dtd">
<svg version="1.0" xmlns="http://www.w3.org/2000/svg"
 width="1280.000000pt" height="871.000000pt" viewBox="0 0 1280.000000 871.000000"
 preserveAspectRatio="xMidYMid meet">
<metadata>
Created by potrace 1.15, written by Peter Selinger 2001-2017
</metadata>
<g transform="translate(0.000000,871.000000) scale(0.100000,-0.100000)"
fill="#000000" stroke="none">
<path d="M6260 8704 c-73 -11 -140 -29 -193 -52 l-59 -26 5 -50 c2 -28 7 -58
11 -66 3 -8 2 -21 -3 -29 -7 -11 -33 -8 -147 15 -129 27 -156 29 -364 29 -198
0 -237 -3 -327 -23 -105 -23 -224 -67 -296 -108 -55 -31 -148 -115 -170 -153
-18 -31 -18 -31 3 -31 12 0 34 7 50 15 32 16 45 7 35 -24 -10 -31 -72 -82
-195 -158 -64 -39 -134 -92 -157 -116 -32 -34 -58 -50 -108 -67 -93 -31 -143
-90 -76 -90 17 0 33 -4 36 -10 3 -5 -1 -10 -9 -10 -29 0 -75 -54 -100 -118
l-25 -62 25 -25 c13 -13 24 -29 24 -34 0 -6 12 -17 28 -25 l27 -15 -25 -1
c-61 -1 -257 23 -419 51 -321 55 -497 70 -626 52 -36 -4 -49 -11 -53 -26 -3
-13 -36 -34 -100 -64 -156 -72 -341 -149 -432 -178 -104 -34 -155 -67 -169
-107 -17 -48 -15 -50 47 -43 144 16 232 49 412 157 171 103 220 126 308 149
89 23 157 24 312 5 63 -8 196 -22 295 -31 726 -66 861 -109 1530 -485 217
-123 362 -197 453 -231 45 -17 68 -32 78 -50 7 -15 35 -43 61 -62 55 -40 97
-84 106 -109 10 -29 -30 -67 -91 -84 -121 -35 -459 8 -646 83 -48 19 -169 75
-267 123 -99 49 -207 98 -242 109 -57 20 -538 91 -817 120 -290 31 -558 30
-661 -4 -61 -20 -107 -54 -226 -169 -70 -66 -153 -170 -153 -190 0 -14 44 -4
80 16 21 13 42 19 46 15 4 -4 -1 -26 -12 -49 -14 -32 -19 -65 -19 -133 1 -98
21 -177 77 -294 28 -59 34 -65 93 -92 154 -70 320 -95 569 -86 161 6 234 14
631 69 217 30 583 33 690 5 90 -24 221 -88 268 -131 37 -34 37 -34 37 -118 l0
-83 -54 -33 c-69 -41 -166 -78 -270 -102 -108 -26 -166 -34 -471 -70 -270 -32
-409 -56 -516 -89 -62 -20 -62 -20 -78 0 -12 16 -28 21 -63 21 -56 0 -116 -26
-430 -187 -523 -268 -726 -328 -1158 -345 -396 -16 -581 -29 -650 -44 -98 -21
-443 -142 -546 -190 -107 -51 -195 -109 -244 -161 l-35 -38 61 6 c81 8 173 42
384 142 288 136 350 148 625 120 189 -20 276 -17 544 15 211 25 244 31 363 70
107 34 256 108 453 224 282 168 466 242 650 265 132 16 127 17 110 -23 -18
-43 -5 -86 50 -169 21 -32 35 -64 33 -76 -3 -20 -4 -21 -25 -6 -12 8 -41 49
-64 91 l-42 76 -36 -6 c-20 -3 -52 -6 -71 -6 -63 -1 -64 -6 -36 -119 53 -207
140 -394 313 -669 160 -253 227 -362 258 -415 19 -35 30 -46 38 -38 7 7 7 18
-1 36 -12 26 -9 45 7 45 11 0 41 -80 41 -107 0 -12 -10 -29 -21 -37 -21 -15
-21 -15 24 -26 56 -15 88 -47 128 -130 17 -36 40 -75 51 -87 l20 -21 -40 5
c-34 5 -42 2 -52 -17 -20 -37 -7 -47 72 -52 73 -5 142 -28 106 -36 -23 -5 -23
-15 2 -37 41 -37 8 -48 -55 -18 -33 16 -36 16 -52 0 -10 -9 -13 -17 -7 -17 6
0 27 -16 48 -36 41 -40 46 -40 139 5 l58 28 34 -33 c19 -18 35 -42 35 -53 0
-21 -1 -21 -37 -6 -21 9 -45 23 -55 32 -17 15 -18 14 -18 -14 0 -25 -11 -40
-54 -77 -30 -25 -56 -56 -58 -70 -5 -23 -2 -25 32 -24 20 0 74 -8 118 -17 l81
-18 -15 -28 c-17 -34 -38 -36 -79 -9 -32 21 -60 26 -69 11 -3 -5 60 -59 141
-121 109 -83 148 -108 154 -98 20 32 -14 79 -82 114 l-46 23 41 83 c29 59 49
87 69 96 34 17 43 11 27 -18 -21 -40 -51 -163 -42 -172 5 -5 33 -15 62 -23 28
-7 61 -22 72 -31 19 -18 19 -18 -3 -26 -19 -7 -21 -13 -15 -49 12 -72 -20 -85
-119 -48 -36 13 -73 38 -104 69 l-47 47 -23 -33 c-12 -18 -21 -43 -19 -56 3
-20 9 -23 58 -26 54 -3 80 -18 80 -48 0 -7 -20 -27 -45 -44 -36 -25 -45 -37
-45 -60 0 -17 2 -30 5 -30 18 0 64 34 88 64 24 31 34 36 67 36 44 0 45 -2 29
-31 -9 -17 -5 -26 27 -55 l37 -35 -31 -43 c-44 -61 -49 -90 -21 -110 34 -23
66 -20 97 11 l27 28 -45 5 c-59 7 -62 26 -10 80 47 49 64 84 55 117 -4 18 -1
23 15 23 11 0 45 23 75 50 30 28 57 50 60 50 10 0 46 -83 41 -95 -2 -7 -31
-19 -63 -26 -32 -7 -66 -16 -75 -21 -29 -14 -21 -36 15 -40 28 -3 36 -11 62
-59 35 -65 60 -96 86 -104 11 -4 52 10 101 34 46 23 97 44 115 47 32 6 32 6
27 -28 -7 -41 23 -85 51 -75 14 6 15 10 5 22 -23 27 -6 39 61 42 35 1 75 3 88
5 19 2 31 -6 49 -32 20 -30 21 -35 7 -38 -8 -2 -32 6 -51 17 -19 12 -39 21
-44 21 -9 0 -69 -50 -105 -87 l-21 -22 -32 20 c-17 12 -42 37 -54 57 l-23 37
-3 -45 c-4 -69 -8 -73 -40 -40 -28 28 -32 29 -99 23 -45 -4 -77 -1 -91 6 -30
16 -40 -10 -18 -44 21 -32 20 -35 -9 -35 -14 0 -48 16 -76 35 -28 19 -57 35
-64 35 -24 0 -37 -30 -43 -96 l-5 -67 24 7 c27 9 101 21 167 29 35 4 42 2 38
-9 -4 -11 -2 -12 14 -4 29 15 59 12 118 -12 48 -20 54 -21 68 -6 15 15 15 17
-2 26 -11 5 -39 13 -64 17 -44 7 -80 29 -80 48 0 14 32 36 52 37 27 0 95 -67
150 -147 27 -40 53 -73 59 -73 5 0 15 12 21 26 9 20 9 29 0 42 -56 77 -61 99
-16 63 31 -25 74 -28 74 -6 0 8 -4 15 -10 15 -5 0 -14 10 -21 22 -10 18 -9 20
5 15 11 -5 31 7 60 33 46 43 56 46 74 28 9 -9 6 -17 -13 -33 -16 -15 -25 -38
-30 -71 -11 -86 -15 -96 -43 -106 l-27 -11 31 -33 c17 -19 40 -34 52 -34 20 0
22 5 22 59 0 74 5 88 41 106 43 23 48 19 36 -21 -10 -32 -9 -38 8 -50 10 -8
35 -14 56 -14 41 0 74 -23 84 -59 7 -22 5 -23 -27 -16 -50 11 -122 36 -133 46
-19 18 -25 8 -25 -41 l0 -49 50 6 c58 7 96 -12 106 -52 l6 -25 34 33 c68 66
50 132 -56 207 l-65 46 -3 82 -3 82 29 0 c26 0 32 6 50 50 16 37 26 50 41 50
12 0 21 -7 21 -15 0 -8 9 -23 20 -32 19 -17 29 -39 13 -30 -5 3 -18 1 -30 -4
-32 -12 -30 -39 2 -39 26 0 85 -25 85 -36 0 -4 -16 -3 -34 0 -29 6 -37 3 -46
-14 -9 -17 -7 -22 14 -29 13 -6 49 -7 80 -4 68 7 70 1 25 -83 -18 -32 -47 -88
-65 -123 -39 -72 -45 -121 -15 -121 10 0 64 -14 120 -31 132 -41 156 -35 175
43 5 23 2 27 -24 33 -16 3 -52 25 -79 47 -48 39 -51 44 -51 88 0 43 2 46 32
55 28 9 35 7 58 -16 25 -26 126 -66 137 -55 4 3 1 18 -5 32 -10 21 -18 25 -44
22 -24 -2 -34 1 -36 14 -4 20 36 43 90 53 l37 7 -6 -34 c-3 -22 1 -46 11 -66
19 -36 21 -82 5 -82 -7 0 -29 5 -51 12 -34 10 -41 9 -56 -6 -14 -15 -14 -19
-3 -23 40 -15 53 -46 76 -185 6 -37 27 -68 47 -68 7 0 9 19 4 54 -8 70 5 106
39 106 30 0 31 -10 6 -41 -14 -17 -17 -29 -10 -41 22 -42 63 -10 73 56 4 24
13 49 20 55 19 16 64 -23 123 -106 l46 -64 33 103 c39 120 40 128 16 128 -11
0 -27 9 -37 20 -29 32 -35 24 -35 -45 0 -82 -14 -84 -58 -10 -18 30 -42 60
-53 65 -25 14 -24 36 1 50 15 8 42 8 96 0 82 -13 114 -9 139 16 15 15 18 15
40 -6 16 -15 43 -24 96 -31 40 -5 74 -7 76 -5 4 4 -104 79 -142 98 -18 9 -45
13 -68 10 -41 -5 -87 18 -87 43 0 35 108 47 162 19 31 -16 47 -9 48 22 0 5 9
20 21 32 l20 22 30 -29 c16 -16 43 -33 60 -36 28 -6 35 -3 56 24 22 28 29 31
84 31 55 0 103 14 139 41 12 8 36 -1 114 -45 54 -31 100 -56 102 -56 9 0 3 80
-10 128 l-13 53 36 25 c41 28 96 32 105 8 3 -9 6 -33 6 -54 0 -29 -6 -41 -25
-54 l-25 -16 0 39 c0 39 -20 68 -39 57 -11 -7 -3 -101 10 -127 5 -9 22 -22 38
-27 26 -9 32 -8 45 14 9 13 35 33 58 45 l42 21 -36 19 c-35 18 -54 36 -46 44
1 2 15 6 29 10 21 5 32 1 53 -22 23 -25 26 -26 26 -8 0 33 -21 99 -38 118 -16
18 -57 23 -66 8 -3 -5 3 -11 14 -14 11 -3 20 -12 20 -21 0 -15 -2 -15 -23 -2
-12 9 -53 25 -91 36 -63 20 -116 56 -116 79 0 10 48 6 110 -10 54 -14 85 -11
112 11 l25 19 11 -24 c6 -14 28 -33 49 -43 37 -17 42 -29 28 -64 -6 -16 -1
-18 39 -18 57 0 66 16 37 63 -18 30 -19 36 -6 54 14 20 17 20 61 7 56 -17 90
-18 99 -3 10 15 4 18 -50 28 -50 9 -75 30 -75 63 0 14 4 16 24 8 15 -5 48 -4
90 3 63 10 66 13 66 38 0 31 9 39 54 48 32 7 51 41 22 41 -29 0 -27 21 5 71
26 41 34 48 41 35 19 -33 46 -15 126 86 93 116 123 172 130 241 5 48 4 49 -16
36 -34 -22 -37 -2 -4 35 32 36 57 102 67 177 7 48 23 81 31 64 27 -56 41 -78
49 -78 19 1 53 127 60 218 17 244 79 455 205 706 71 140 128 235 285 474 85
130 123 198 138 245 56 190 183 349 346 434 64 33 181 76 207 76 19 0 61 -88
79 -162 42 -180 -8 -460 -130 -725 -19 -40 -31 -73 -27 -73 44 3 137 101 182
194 59 119 81 217 87 376 5 117 2 148 -16 219 -33 133 -91 213 -165 227 -79
14 -176 -35 -370 -190 -60 -47 -111 -84 -113 -82 -3 3 12 42 32 88 75 168 85
194 85 227 0 33 -1 34 -15 15 -14 -18 -14 -18 -15 8 0 16 12 41 30 61 54 62
59 131 9 133 -13 1 -28 2 -32 3 -5 0 3 15 17 32 26 30 26 33 22 156 -4 111 -8
129 -29 162 -39 59 -65 114 -123 264 -85 220 -113 255 -279 352 -52 31 -95 57
-95 58 0 1 10 27 22 57 18 45 22 76 22 165 1 109 0 113 -37 187 -44 89 -106
151 -199 197 -74 37 -88 38 -88 7 0 -14 -4 -27 -9 -31 -10 -5 -101 53 -101 65
0 19 16 17 36 -5 23 -25 54 -34 54 -15 0 34 -26 60 -77 76 -89 28 -168 87
-333 248 -119 117 -170 159 -219 184 -35 18 -74 32 -86 32 -19 0 -23 7 -28 41
-7 56 -16 62 -66 44 l-43 -15 -56 49 c-115 98 -231 161 -350 192 -148 38 -268
21 -515 -73 l-79 -30 -37 36 c-36 35 -39 36 -110 36 -70 0 -76 2 -112 35 -77
69 -221 126 -379 150 -87 14 -219 18 -280 9z m-56 -80 c31 -31 20 -44 -39 -44
-30 0 -55 -4 -55 -10 0 -5 -4 -10 -10 -10 -5 0 -10 11 -10 25 0 44 82 72 114
39z m260 -199 c4 -10 -12 -26 -49 -50 -60 -38 -66 -50 -33 -61 l23 -7 -25 -9
c-31 -11 -72 -5 -175 29 -44 15 -101 27 -127 27 l-48 1 0 43 0 42 214 0 c180
0 215 -2 220 -15z m894 -12 c23 -32 14 -43 -32 -43 -57 0 -76 8 -76 31 0 40
80 49 108 12z m262 8 c0 -36 -26 -46 -70 -26 -59 26 -52 45 15 45 47 0 55 -3
55 -19z m174 -62 c-4 -22 -18 -56 -31 -76 l-24 -35 26 -44 c14 -24 60 -72 102
-107 117 -95 171 -147 195 -185 21 -34 52 -142 43 -151 -3 -2 -64 54 -137 125
-73 71 -159 147 -190 168 -47 32 -58 45 -58 67 0 18 -11 38 -35 60 -19 19 -35
42 -35 52 0 34 -19 55 -57 62 -43 8 -63 21 -63 41 0 20 50 18 117 -6 32 -11
61 -20 65 -20 4 0 12 17 18 39 5 21 20 51 32 66 l22 28 8 -22 c4 -13 5 -41 2
-62z m-2234 -14 c69 -8 146 -15 171 -15 l46 0 -1 -42 c-1 -41 1 -44 46 -68 27
-14 48 -28 48 -32 0 -3 -16 -15 -35 -27 -30 -17 -35 -26 -35 -56 0 -46 -18
-46 -69 0 -21 19 -44 35 -51 35 -12 0 -11 14 6 69 6 20 4 23 -9 18 -9 -3 -43
-11 -77 -17 -51 -9 -99 -7 -267 10 -113 12 -212 19 -219 16 -46 -18 22 57 78
85 81 42 171 47 368 24z m1168 -65 c46 -22 81 -44 78 -49 -12 -19 -77 -41
-122 -41 -61 0 -122 29 -168 81 -53 58 -49 63 47 55 67 -5 98 -14 165 -46z
m713 10 c15 -9 17 -15 9 -30 -12 -22 -18 -24 -39 -11 -8 5 -11 16 -6 30 7 24
9 25 36 11z m-337 -24 c19 -8 70 -39 115 -70 79 -54 97 -61 151 -56 21 2 22 0
11 -13 -14 -17 0 -29 52 -41 32 -8 35 -22 7 -31 -11 -3 -20 -10 -20 -16 0 -5
24 -37 53 -71 70 -82 87 -110 97 -153 7 -29 5 -35 -9 -35 -19 0 -60 26 -78 50
-6 8 -14 29 -18 46 -4 26 -15 37 -58 58 -30 15 -81 55 -121 96 -85 87 -125
109 -208 112 l-63 3 -8 40 c-18 83 19 114 97 81z m-142 -50 c21 -15 13 -26
-18 -26 -25 0 -39 14 -29 30 8 14 26 12 47 -4z m-561 -33 c46 -23 93 -56 124
-89 31 -31 79 -66 124 -88 88 -45 162 -111 192 -172 12 -25 20 -47 18 -49 -2
-2 -54 34 -114 79 -132 98 -271 174 -288 157 -9 -9 -8 -17 1 -31 11 -19 17
-60 8 -60 -3 0 -17 5 -32 10 -24 9 -26 14 -22 48 5 36 4 37 -26 37 -27 0 -34
6 -55 47 -12 27 -27 45 -32 42 -5 -3 -5 -13 1 -23 15 -28 -5 -40 -45 -27 -39
12 -46 38 -20 72 20 26 19 44 -3 44 -30 0 -34 13 -10 27 42 23 100 15 179 -24z
m-425 12 c-9 -24 40 -31 80 -11 36 17 71 20 98 10 11 -4 16 -19 16 -49 0 -35
7 -51 35 -85 20 -24 34 -48 32 -54 -4 -11 -41 -12 -162 -3 l-70 6 -12 42 c-15
50 -30 69 -54 69 -26 0 -24 26 4 60 24 31 43 39 33 15z m1574 -75 c93 -27 190
-129 190 -200 0 -26 11 -47 48 -89 62 -72 114 -144 142 -201 29 -55 32 -150 8
-195 l-16 -29 -70 140 c-90 179 -176 308 -254 378 -60 54 -61 56 -43 76 17 18
17 20 -1 51 -11 17 -34 39 -51 49 -51 27 -22 40 47 20z m-1610 -60 c0 -40 -48
-78 -65 -51 -11 19 18 61 42 61 12 0 23 -4 23 -10z m1170 -59 l49 -49 -31 -6
c-60 -12 -148 16 -168 54 -8 16 -6 21 17 33 52 28 80 21 133 -32z m-2397 9
c16 -15 -13 -49 -51 -60 -20 -5 -56 -10 -80 -10 l-42 0 15 24 c33 50 126 78
158 46z m868 -16 c44 -22 91 -66 121 -113 33 -53 34 -57 9 -64 -12 -3 -22 -18
-26 -38 -4 -19 -10 -38 -12 -42 -11 -19 -45 31 -64 97 -26 91 -52 116 -110
109 -41 -6 -42 -5 -35 18 4 13 10 34 13 45 4 20 8 21 41 12 21 -6 49 -16 63
-24z m66 25 c14 -14 6 -39 -12 -39 -21 0 -36 25 -23 38 15 15 21 15 35 1z
m-541 -43 c156 -53 303 -149 398 -260 l48 -56 -39 0 c-51 0 -84 22 -195 128
-99 94 -145 119 -198 107 -24 -5 -30 -3 -30 10 0 8 -16 25 -35 36 -20 12 -35
29 -35 40 0 24 2 24 86 -5z m954 -16 c0 -15 -7 -20 -25 -20 -18 0 -25 5 -25
20 0 15 7 20 25 20 18 0 25 -5 25 -20z m279 -14 c14 -17 11 -51 -4 -51 -6 0
-23 10 -38 22 -24 19 -27 25 -17 43 12 22 34 17 59 -14z m-189 -21 c0 -33 -2
-35 -35 -35 -33 0 -35 2 -35 35 0 33 2 35 35 35 33 0 35 -2 35 -35z m2025 13
c4 -13 35 -50 69 -83 50 -48 64 -68 69 -99 4 -22 5 -42 3 -44 -8 -8 -70 31
-114 71 -44 41 -92 124 -92 160 0 28 57 23 65 -5z m-3206 -54 l23 -27 -23 -49
c-15 -33 -26 -45 -33 -38 -5 5 -35 10 -65 10 -73 0 -88 10 -75 47 10 29 26 33
87 18 26 -7 27 -6 27 29 0 45 25 49 59 10z m-389 -84 c0 -32 -69 -56 -85 -29
-11 17 26 49 57 49 21 0 28 -5 28 -20z m1204 -6 c9 -3 16 -15 16 -25 0 -15 -7
-19 -35 -19 -27 0 -35 4 -35 18 0 31 19 40 54 26z m-640 -30 c25 -24 19 -34
-19 -34 -27 0 -35 4 -35 18 0 35 28 43 54 16z m3756 -4 c11 -7 12 -12 3 -21
-15 -15 -43 -5 -43 16 0 17 18 19 40 5z m-4460 -20 c0 -5 -25 -10 -55 -10 -30
0 -55 5 -55 10 0 6 25 10 55 10 30 0 55 -4 55 -10z m68 -78 c35 7 60 7 75 1
21 -10 21 -11 -13 -32 -74 -45 -174 -61 -275 -43 l-40 7 25 18 c13 9 34 17 47
17 21 0 53 24 53 40 0 4 17 2 38 -5 28 -10 50 -11 90 -3z m1343 -12 c26 -14
26 -60 0 -60 -21 0 -35 15 -45 48 -8 25 11 30 45 12z m1199 -25 c0 -38 -6 -38
-55 0 -17 14 -18 17 -5 25 8 5 25 10 38 10 19 0 22 -5 22 -35z m-1925 11 c36
-15 55 -42 55 -75 0 -39 -68 -20 -157 44 -23 17 -42 33 -43 38 0 13 109 8 145
-7z m369 -218 c18 -25 21 -93 6 -103 -19 -12 -48 6 -59 35 -7 20 -17 30 -30
30 -25 0 -26 8 -5 38 10 14 26 22 44 22 18 0 34 -8 44 -22z m3491 -33 c94 -54
176 -172 266 -382 49 -114 69 -146 69 -108 0 21 17 19 23 -4 7 -30 -5 -39 -63
-52 -30 -6 -63 -15 -72 -20 -14 -8 -18 -2 -23 38 -11 88 -16 103 -39 120 -18
15 -21 26 -18 59 6 62 -20 105 -115 192 -95 87 -123 126 -123 170 0 30 1 31
28 21 15 -6 45 -21 67 -34z m257 28 c19 -17 25 -73 7 -73 -5 0 -15 13 -20 29
-6 16 -17 32 -25 35 -16 6 -10 26 8 26 6 0 20 -7 30 -17z m-2067 -33 l24 0
-20 -34 c-13 -22 -18 -43 -14 -59 14 -56 139 -140 248 -167 l46 -12 -5 -67
c-3 -36 -7 -72 -10 -78 -5 -20 -48 -15 -77 7 -36 29 -61 17 -52 -26 6 -34 6
-34 -27 -27 -18 3 -39 11 -47 17 -22 17 -51 -28 -51 -81 0 -40 -2 -44 -22 -41
-16 2 -25 14 -33 42 -7 22 -17 42 -24 44 -7 2 4 21 29 48 41 45 50 77 30 115
-21 38 30 21 76 -26 24 -25 47 -45 51 -45 4 0 19 9 33 19 l24 19 -36 22 c-39
22 -51 41 -42 65 5 11 -1 13 -31 8 -34 -5 -40 -2 -79 41 -34 36 -50 46 -74 46
-36 0 -72 30 -72 60 0 13 7 20 19 20 11 0 32 11 48 24 23 20 25 26 15 39 -11
13 -10 17 5 26 10 6 24 8 31 6 8 -3 24 -5 37 -5z m-652 -60 c23 0 57 4 75 9
30 9 33 8 46 -22 7 -18 32 -56 55 -85 53 -67 91 -122 91 -133 0 -5 -14 -9 -31
-9 l-31 0 57 -62 c114 -125 228 -293 250 -368 9 -27 -22 -4 -183 140 -132 117
-341 365 -444 526 l-27 42 50 -19 c27 -11 68 -19 92 -19z m247 -15 c0 -60 -13
-70 -46 -38 -15 15 -44 73 -44 88 0 3 20 5 45 5 l45 0 0 -55z m-870 -97 c0
-10 -4 -28 -10 -38 -9 -16 -4 -19 40 -25 59 -8 100 -41 100 -82 0 -20 3 -24
11 -16 20 20 12 79 -20 141 -36 71 -40 105 -13 95 9 -3 49 -30 87 -59 39 -29
83 -58 98 -63 21 -8 27 -17 27 -40 0 -16 5 -42 11 -58 12 -33 87 -113 106
-113 19 0 16 14 -6 34 -22 20 -32 49 -22 64 9 15 250 -132 321 -196 69 -61
109 -135 117 -216 3 -31 2 -56 -2 -56 -13 0 -99 62 -215 155 -108 87 -229 169
-238 161 -2 -3 4 -15 12 -29 9 -13 31 -69 50 -123 18 -55 41 -114 50 -132 39
-76 -71 -8 -174 109 -151 169 -214 230 -260 251 -39 18 -46 25 -42 44 4 24 2
26 -73 88 -28 23 -29 26 -19 65 13 47 11 51 -28 51 -37 0 -35 15 10 64 l37 41
23 -48 c12 -27 22 -58 22 -69z m-349 72 c11 -6 19 -21 19 -35 0 -20 -5 -25
-27 -25 -31 0 -63 26 -63 52 0 21 38 25 71 8z m133 -62 c16 -13 -36 -109 -54
-102 -8 3 -30 8 -47 11 -44 7 -45 42 -3 79 16 15 32 36 36 46 6 19 7 19 32 -3
15 -13 31 -27 36 -31z m1851 -8 c27 -28 48 -40 67 -40 41 0 35 -25 -13 -56
-22 -14 -42 -24 -44 -22 -1 2 -10 18 -19 36 -9 18 -28 37 -42 43 -20 7 -24 14
-19 27 5 9 8 25 9 35 1 27 19 20 61 -23z m1171 -63 c66 -48 99 -87 196 -228
37 -52 73 -101 82 -108 27 -23 14 -51 -24 -51 -19 0 -72 55 -123 128 -30 42
-78 104 -108 137 -52 59 -109 141 -109 157 0 18 31 6 86 -35z m-2876 -103 c0
-41 36 -88 104 -135 39 -28 71 -53 70 -57 0 -4 -4 -20 -8 -36 -8 -26 -12 -28
-48 -23 -83 11 -179 84 -244 184 -19 29 -34 55 -34 58 0 3 12 5 28 5 15 0 34
5 42 10 8 5 32 10 53 10 27 0 37 -4 37 -16z m1992 -219 c14 -16 39 -50 56 -75
25 -38 47 -54 138 -100 59 -30 116 -67 127 -81 20 -28 39 -97 28 -103 -12 -8
-127 52 -189 99 -34 26 -102 93 -150 148 -132 153 -184 207 -193 201 -14 -9
-11 -19 21 -59 40 -50 40 -75 0 -75 -32 0 -51 16 -103 83 -23 30 -34 37 -62
37 -27 0 -35 4 -35 18 0 39 25 65 75 81 32 10 53 24 59 37 9 20 17 14 106 -80
54 -55 108 -114 122 -131z m16 178 c24 -13 56 -43 72 -65 38 -52 103 -168 98
-174 -10 -9 -100 60 -152 117 -52 56 -116 141 -116 153 0 11 55 -6 98 -31z
m556 -70 c77 -88 103 -112 130 -119 41 -10 43 3 8 39 -18 18 -32 41 -32 50 0
29 47 -3 133 -90 68 -68 77 -75 77 -53 0 26 -15 54 -62 112 -32 40 -47 88 -26
88 19 0 105 -73 144 -123 45 -58 96 -164 133 -277 32 -99 36 -120 23 -120 -24
0 -53 38 -77 99 -28 74 -53 105 -82 99 -33 -6 -26 -50 27 -156 27 -57 50 -111
50 -121 0 -10 -15 -24 -35 -34 -34 -16 -35 -16 -35 3 0 33 -38 119 -81 181
-22 33 -101 119 -176 192 -146 143 -245 255 -237 269 3 4 21 8 41 8 31 0 43
-7 77 -47z m-4521 -178 c243 -32 458 -77 965 -200 577 -139 779 -175 1127
-200 463 -32 671 -66 1490 -239 143 -30 302 -63 353 -72 76 -15 91 -21 86 -33
-3 -9 -19 -79 -35 -156 -34 -163 -41 -187 -74 -236 -23 -35 -23 -38 -6 -53 23
-21 57 -20 69 1 9 14 11 14 22 -7 25 -47 -17 -130 -66 -130 -26 0 -41 35 -54
132 -12 84 2 188 44 311 19 56 33 103 31 105 -2 2 -17 -4 -34 -12 -41 -22 -66
-75 -86 -182 -15 -82 -47 -174 -59 -174 -9 0 -36 58 -36 77 0 10 13 61 30 113
18 58 30 116 30 150 l0 55 -31 -49 c-33 -53 -54 -104 -115 -283 -37 -109 -37
-112 -20 -138 15 -23 23 -26 57 -23 34 3 39 1 39 -17 0 -37 29 -63 95 -85 72
-24 100 -44 110 -78 8 -27 30 -30 -204 28 -90 22 -174 40 -186 40 -19 0 -25 9
-38 58 -43 151 -45 310 -7 486 11 49 18 91 16 94 -8 7 -53 -73 -71 -124 -20
-58 -55 -251 -55 -303 0 -25 9 -50 30 -78 29 -40 50 -103 35 -103 -5 0 -16 7
-25 15 -9 8 -54 22 -99 32 -45 9 -80 19 -78 22 39 72 90 195 106 261 19 80 52
301 46 308 -2 2 -13 -2 -25 -8 -26 -14 -36 -40 -44 -116 -14 -129 -22 -148
-46 -104 -8 15 -3 41 20 113 43 135 40 159 -14 116 -30 -23 -49 -83 -66 -208
-6 -46 -16 -95 -21 -109 l-10 -25 -24 23 c-40 37 -41 76 -6 198 28 98 38 162
27 162 -43 0 -72 -65 -90 -202 -16 -119 -32 -178 -47 -178 -6 0 -21 11 -34 25
-35 34 -33 97 5 208 30 88 38 147 21 147 -17 0 -60 -61 -70 -98 -6 -20 -15
-80 -22 -132 -6 -52 -21 -119 -32 -149 l-20 -55 -23 28 c-34 39 -35 109 -3
183 52 122 72 226 51 261 -7 10 -12 8 -25 -5 -25 -28 -36 -67 -58 -196 -11
-66 -27 -136 -35 -156 -16 -38 -51 -81 -67 -81 -19 0 3 120 43 240 24 71 40
137 40 166 0 46 0 46 -22 32 -39 -26 -58 -71 -73 -179 -8 -57 -20 -122 -26
-144 -12 -43 -54 -95 -77 -95 -24 0 -9 117 32 251 49 161 57 199 42 199 -20 0
-55 -38 -71 -77 -9 -20 -27 -98 -40 -172 -13 -75 -27 -147 -30 -161 -6 -22 -1
-29 34 -48 22 -13 104 -38 183 -56 125 -29 139 -35 120 -45 -36 -19 -115 -24
-188 -12 -186 31 -508 99 -774 163 -245 59 -316 80 -417 124 -151 67 -286 101
-793 200 -654 127 -715 142 -1054 259 -188 64 -261 85 -301 85 -64 0 -112 16
-126 42 -6 11 -9 21 -7 23 5 4 538 -107 788 -165 124 -28 726 -177 1338 -331
611 -153 1118 -279 1126 -279 12 0 12 7 4 37 -13 48 -5 107 33 229 45 142 44
243 -1 184 -18 -24 -29 -62 -66 -244 -12 -61 -23 -86 -44 -108 -16 -15 -33
-28 -39 -28 -23 0 -11 108 24 220 20 65 35 132 35 161 0 47 -1 49 -21 39 -31
-17 -48 -68 -64 -190 -16 -123 -32 -170 -66 -194 -23 -16 -24 -16 -27 7 -2 13
11 78 27 144 17 66 34 154 37 194 7 66 6 73 -8 61 -26 -21 -57 -106 -83 -222
-13 -61 -30 -120 -36 -132 -12 -22 -12 -22 -20 -3 -15 40 -8 111 22 222 16 63
28 122 26 131 -7 28 -55 -87 -73 -173 -17 -82 -41 -142 -67 -164 -13 -10 -14
-7 -6 26 5 21 18 97 29 168 12 72 24 141 27 155 6 23 5 24 -12 10 -28 -23 -43
-70 -60 -181 -16 -102 -45 -189 -64 -189 -14 0 -41 54 -41 83 0 12 16 72 35
131 25 76 35 123 33 155 l-3 46 -22 -34 c-14 -21 -26 -65 -33 -120 -20 -147
-31 -183 -64 -216 l-31 -30 -3 26 c-4 39 36 225 63 294 14 33 21 62 17 66 -4
3 -26 11 -50 17 l-43 10 -19 -37 c-10 -21 -30 -92 -44 -159 -14 -67 -30 -131
-37 -144 -13 -23 -13 -22 -21 12 -10 44 -4 87 32 222 l28 106 -26 5 c-15 2
-34 7 -43 11 -24 11 -54 -59 -75 -174 -27 -149 -57 -203 -88 -158 -25 35 -19
79 24 193 40 105 48 145 31 145 -20 0 -50 -54 -61 -108 -25 -137 -32 -160 -51
-181 -11 -11 -25 -21 -31 -21 -17 0 1 125 32 223 15 48 25 87 21 87 -4 0 -16
-7 -28 -15 -26 -18 -43 -72 -43 -138 0 -26 -6 -63 -14 -82 -14 -32 -52 -63
-63 -51 -7 7 12 109 37 196 10 36 21 79 25 95 l7 30 -25 -24 c-20 -18 -28 -40
-37 -95 -16 -104 -32 -147 -62 -169 -15 -12 -30 -18 -34 -15 -10 11 16 159 42
237 14 40 23 75 21 78 -3 2 -17 -2 -31 -9 -22 -9 -29 -9 -35 1 -19 30 -57 -56
-76 -175 -9 -54 -18 -100 -21 -103 -9 -9 -34 31 -34 52 0 11 14 62 30 114 30
95 38 149 20 138 -20 -12 -40 -64 -59 -154 -11 -50 -25 -100 -32 -113 -11 -21
-12 -21 -25 -3 -21 28 -17 83 12 165 14 41 24 88 22 109 l-3 36 -21 -33 c-13
-21 -27 -66 -34 -115 -13 -90 -30 -131 -60 -147 -18 -10 -20 -8 -20 17 0 15 7
57 16 93 21 86 32 170 24 170 -19 0 -31 -34 -44 -126 -13 -84 -19 -102 -41
-121 -34 -30 -43 -29 -56 4 -8 22 -6 40 11 88 38 108 51 160 44 185 l-6 25
-19 -24 c-11 -13 -19 -39 -19 -58 0 -23 -4 -33 -12 -30 -9 3 -12 22 -11 56 1
28 -2 51 -7 51 -16 0 -39 -43 -44 -85 -16 -128 -17 -138 -2 -126 8 7 18 26 21
42 4 16 11 29 16 29 18 0 20 -51 4 -100 l-17 -51 -25 16 c-16 11 -36 15 -54
11 -27 -5 -29 -4 -29 29 0 18 14 71 30 116 17 46 30 97 28 113 l-3 31 -17 -25
c-9 -14 -28 -70 -43 -124 -30 -118 -40 -134 -66 -110 -26 24 -24 60 12 169 32
99 35 138 6 94 -10 -15 -24 -63 -32 -107 -8 -45 -18 -90 -24 -100 -13 -25 -40
-46 -48 -39 -3 4 4 66 16 138 27 153 25 159 -45 141 -34 -9 -50 -10 -59 -2
-19 16 -32 -11 -45 -93 -13 -86 -24 -111 -52 -131 -21 -15 -24 -15 -36 1 -14
18 -11 138 3 175 4 10 -4 25 -18 39 -14 13 -27 33 -29 44 -4 17 -7 16 -25 -13
-23 -38 -33 -31 -43 28 -5 35 -6 35 -65 41 -33 3 -75 14 -94 24 -34 17 -35 17
-53 -5 -10 -12 -18 -33 -18 -46 0 -13 -4 -24 -10 -24 -5 0 -10 20 -10 44 0 35
-5 48 -22 61 -22 15 -23 15 -32 -10 -12 -32 -45 -33 -110 -4 -56 24 -111 28
-155 9 -36 -15 -51 -43 -51 -99 0 -20 -6 -46 -14 -57 -16 -21 -15 -22 -33 46
l-10 35 -21 -47 c-16 -36 -27 -48 -43 -48 -23 0 -23 3 2 92 13 47 6 76 -12 48
-5 -8 -13 -30 -18 -49 -12 -41 -38 -71 -63 -71 -23 0 -24 39 -2 81 8 17 13 37
10 44 -3 8 25 25 85 50 49 20 99 46 111 56 21 18 34 20 143 15 66 -3 173 -12
238 -21z m5174 -76 c20 -39 57 -228 48 -238 -2 -2 -26 19 -53 47 -42 43 -122
180 -122 208 0 6 16 8 35 6 26 -3 36 0 41 12 10 26 27 14 51 -35z m-1763 -56
c171 -103 515 -322 1001 -638 552 -359 791 -513 973 -625 56 -35 102 -66 102
-70 0 -9 -87 -20 -156 -20 -72 0 -193 33 -272 75 -37 19 -105 64 -152 100
-152 117 -670 505 -971 727 -162 119 -345 256 -407 304 -112 87 -114 88 -145
75 -18 -7 -39 -13 -47 -14 -22 -3 -25 41 -5 63 10 11 15 28 12 40 -3 11 -3 20
0 20 3 0 33 -17 67 -37z m-4036 -35 c-2 -26 -8 -34 -27 -36 -68 -10 -99 35
-38 55 60 19 69 17 65 -19z m322 1 c0 -28 -23 -99 -33 -99 -16 0 -18 29 -3 59
9 16 16 39 16 51 0 12 5 18 10 15 6 -3 10 -15 10 -26z m118 -87 c2 -23 -1 -32
-12 -32 -22 0 -36 31 -24 53 14 26 32 16 36 -21z m179 -25 c-6 -46 -22 -66
-38 -50 -8 8 -7 17 5 34 9 13 16 34 16 47 0 14 4 21 11 16 7 -4 9 -22 6 -47z
m-137 2 c0 -16 -4 -29 -10 -29 -5 0 -10 16 -10 36 0 21 4 33 10 29 6 -3 10
-19 10 -36z m390 17 c0 -23 22 -31 35 -13 22 31 38 20 31 -20 -18 -120 -14
-113 -59 -109 -57 5 -65 21 -42 95 17 56 35 80 35 47z m-815 -141 c50 -15 96
-34 104 -41 9 -8 16 -51 21 -136 5 -68 11 -135 15 -150 7 -27 6 -27 -32 -22
-123 17 -216 74 -265 161 -30 54 -57 145 -58 197 l0 29 63 -5 c34 -3 103 -18
152 -33z m5559 -80 c32 -30 80 -130 72 -150 -8 -23 -44 -18 -61 9 -12 18 -55
146 -55 163 0 10 21 -1 44 -22z m340 -5 c24 -9 37 -40 17 -40 -14 0 -71 34
-71 43 0 10 24 9 54 -3z m-3454 -106 c0 -76 -25 -156 -58 -186 l-25 -23 5 25
c3 14 18 80 33 148 30 131 45 142 45 36z m-154 21 c8 -42 -44 -215 -57 -193
-14 21 -10 61 11 123 11 32 20 71 20 87 0 39 17 27 26 -17z m3964 23 c0 -13 9
-59 20 -103 12 -47 20 -114 20 -164 0 -64 4 -89 17 -103 24 -26 30 -23 36 20
3 20 11 69 18 108 10 61 10 78 -3 118 -8 25 -13 46 -9 46 16 -1 63 -80 77
-128 18 -60 13 -124 -16 -206 -28 -79 -108 -246 -119 -246 -21 0 -42 87 -47
199 -6 128 -17 175 -46 207 -17 19 -17 22 -3 34 19 16 19 56 0 110 -8 23 -15
62 -15 86 0 44 0 44 35 44 30 0 35 -3 35 -22z m-4420 -32 c0 -21 -22 -37 -36
-25 -10 8 -10 16 -2 35 9 18 14 21 25 13 7 -6 13 -17 13 -23z m2845 -308 c-2
-24 -7 -70 -10 -103 -8 -79 -26 -107 -68 -103 -31 3 -32 4 -30 49 0 26 11 81
24 123 22 75 23 76 56 76 32 0 33 0 28 -42z m99 -96 c-1 -64 -35 -151 -63
-160 -12 -4 -13 10 -8 81 6 83 18 124 41 139 23 16 31 -1 30 -60z m133 11 c-4
-21 -12 -94 -19 -161 -11 -108 -10 -134 4 -202 17 -84 51 -146 96 -179 l29
-21 -5 91 c-5 87 -4 91 14 81 22 -12 72 -65 133 -139 24 -29 46 -53 50 -53 3
0 11 10 16 22 6 13 24 26 42 30 33 9 53 44 38 67 -3 6 -2 11 3 11 16 0 52 -41
76 -88 13 -26 33 -58 44 -72 19 -23 21 -24 28 -6 4 10 2 27 -4 37 -16 25 -15
62 1 57 6 -2 27 -28 46 -57 28 -42 36 -49 43 -37 31 55 137 61 373 23 88 -15
184 -30 214 -34 l53 -8 -47 -70 c-26 -38 -53 -84 -61 -101 l-13 -31 -188 42
c-103 24 -273 64 -378 90 -380 92 -624 148 -793 180 -96 18 -176 36 -179 39
-3 3 2 17 11 30 15 23 23 25 103 28 83 3 88 4 91 26 2 13 -2 29 -8 37 -8 9 -8
15 0 20 16 10 38 -13 65 -64 24 -49 61 -88 71 -78 4 3 -8 63 -26 133 -28 111
-32 138 -27 218 3 54 12 108 22 134 16 38 21 42 53 42 34 0 35 0 29 -37z
m1293 -79 c0 -8 -4 -14 -10 -14 -5 0 -10 7 -10 15 0 8 -4 15 -10 15 -13 0 -13
-41 0 -76 8 -21 8 -31 -4 -42 -13 -13 -18 -12 -45 9 -39 31 -38 52 2 111 l32
48 23 -26 c12 -14 22 -32 22 -40z m-1209 -79 c-13 -56 -46 -115 -70 -123 -17
-5 -10 30 26 143 33 103 35 106 47 67 6 -22 5 -50 -3 -87z m-1403 -28 c-2 -11
-9 -22 -16 -25 -14 -4 -42 56 -42 90 1 22 2 21 31 -10 18 -20 29 -42 27 -55z
m1520 14 c4 -36 -28 -161 -40 -161 -4 0 -15 14 -24 31 -17 34 -13 77 12 137
18 45 48 41 52 -7z m122 -55 c0 -1 -7 -27 -16 -57 -27 -91 -74 -123 -74 -50 0
54 19 101 44 110 17 7 46 5 46 -3z m-2501 -138 c16 -29 33 -66 37 -81 6 -26 8
-27 22 -14 13 14 13 21 -2 63 -21 62 -20 67 7 53 77 -40 112 -117 127 -282 5
-62 10 -120 10 -129 0 -25 -36 -23 -54 3 -10 15 -20 19 -37 14 -21 -7 -21 -5
-14 26 5 19 9 52 9 74 1 34 -2 40 -21 43 -27 4 -29 -5 -7 -36 19 -27 12 -54
-11 -46 -41 16 -62 121 -26 131 17 4 16 8 -15 36 -20 16 -56 59 -81 95 -43 59
-48 63 -60 46 -15 -20 -17 -6 -7 34 5 18 13 22 49 22 42 0 45 -2 74 -52z
m2555 16 c20 -19 21 -74 3 -74 -25 0 -50 37 -43 65 7 29 18 31 40 9z m163 -41
c7 -19 -29 -53 -58 -53 -27 0 -24 35 3 54 29 21 47 20 55 -1z m-1249 -105 c-2
-15 -10 -23 -23 -23 -13 0 -21 8 -23 23 -3 18 1 22 23 22 22 0 26 -4 23 -22z
m-3160 -44 c103 -8 111 -23 21 -44 -62 -15 -83 -42 -70 -88 18 -61 -35 -34
-84 43 -19 30 -42 55 -50 55 -25 0 -17 18 13 28 34 13 56 14 170 6z m2620
-134 c7 -12 12 -46 10 -83 -1 -34 4 -72 11 -84 10 -20 9 -23 -8 -23 -14 0 -23
-9 -27 -25 -4 -15 -13 -25 -24 -25 -25 0 -34 45 -20 104 12 56 3 78 -39 96
-35 14 -32 26 13 46 44 19 69 17 84 -6z m1124 -17 c34 -36 61 -91 54 -109 -14
-37 -88 5 -113 63 -28 68 11 97 59 46z m-2348 -42 c-4 -21 0 -40 15 -64 11
-19 21 -46 21 -61 0 -25 -2 -26 -56 -26 l-56 0 7 53 c8 55 18 81 43 110 22 25
32 21 26 -12z m2266 -26 c10 -11 10 -26 3 -58 -9 -41 -10 -41 -20 -17 -21 51
-26 90 -10 90 8 0 20 -7 27 -15z m-3776 -20 c16 -14 26 -35 26 -51 0 -27 0
-27 -21 -8 -19 17 -49 65 -49 79 0 12 19 4 44 -20z m712 -73 c76 -93 124 -206
124 -295 0 -35 -1 -36 -21 -25 -32 20 -149 202 -174 271 -13 34 -26 82 -30
106 l-7 44 31 -22 c17 -12 52 -48 77 -79z m-118 -34 c30 -39 43 -88 23 -88
-20 0 -71 72 -71 100 0 40 10 38 48 -12z m3325 25 c3 -10 8 -34 11 -54 8 -44
25 -60 71 -68 33 -6 34 -7 22 -31 -11 -22 -20 -25 -69 -28 l-56 -3 -16 56 c-9
30 -20 76 -25 100 l-8 45 33 0 c23 0 34 -5 37 -17z m-2636 -35 c6 -7 16 -31
23 -53 16 -52 25 -61 45 -45 13 11 14 7 10 -31 -2 -24 -7 -70 -10 -101 -6 -53
-9 -58 -30 -58 -13 0 -27 5 -30 10 -3 6 -20 10 -36 10 -29 0 -29 0 -13 25 14
21 15 42 9 140 -6 98 -5 115 8 115 8 0 19 -6 24 -12z m1043 -26 c21 -26 25
-49 11 -70 -7 -12 -14 -11 -38 2 -17 8 -33 23 -37 31 -8 21 -8 60 0 67 10 11
45 -5 64 -30z m1485 -22 c0 -36 -29 -33 -33 3 -3 23 0 28 15 25 12 -2 18 -12
18 -28z m-2758 -77 c15 -20 38 -46 51 -59 22 -21 22 -23 5 -32 -10 -6 -35 -14
-55 -20 -43 -12 -48 -5 -48 63 0 25 -6 47 -15 55 -8 7 -12 16 -9 21 12 20 45
7 71 -28z m-952 5 c22 -10 28 -9 36 3 15 23 55 -31 68 -92 7 -29 17 -59 24
-67 20 -25 -61 -7 -89 18 -20 20 -84 129 -84 144 0 9 16 7 45 -6z m2135 -19
c23 -43 -6 -63 -48 -33 -22 15 -22 17 -6 35 22 25 41 24 54 -2z m-2306 -63
c19 -41 52 -101 74 -133 41 -61 75 -123 86 -159 5 -18 1 -24 -25 -33 -30 -10
-31 -13 -24 -48 l7 -38 -23 20 c-67 60 -130 202 -164 367 -19 99 -19 98 10 98
22 0 30 -10 59 -74z m2573 54 c26 0 33 -4 33 -19 0 -34 -42 -72 -80 -74 -34
-2 -35 -1 -33 36 3 49 21 83 36 68 6 -6 26 -11 44 -11z m-1060 -522 c-6 -41 5
-48 37 -23 19 15 66 21 66 9 0 -3 -13 -25 -30 -49 -25 -37 -69 -65 -101 -65
-10 0 -23 163 -14 191 l8 23 19 -24 c15 -18 19 -34 15 -62z m1679 -10 c9 -61
-3 -138 -21 -138 -7 0 -21 7 -30 17 -14 13 -15 26 -9 77 5 34 8 78 7 100 l-1
39 24 -24 c15 -15 26 -41 30 -71z m465 41 c13 -25 8 -134 -8 -150 -7 -7 -23
-6 -52 3 -51 16 -53 38 -11 96 17 23 30 49 30 57 0 22 28 18 41 -6z m-3401 -9
c0 -41 -51 -83 -79 -65 -16 9 -13 41 5 59 17 17 74 22 74 6z m223 -17 c6 -16
16 -31 22 -36 9 -6 -30 -46 -46 -47 -13 0 -17 28 -12 69 7 48 18 52 36 14z
m1547 22 c0 -4 -7 -19 -15 -35 -22 -42 -45 -39 -45 5 0 32 2 35 30 35 17 0 30
-2 30 -5z m224 -117 c26 -29 52 -70 58 -91 10 -33 9 -40 -8 -56 -10 -11 -29
-22 -41 -26 -20 -5 -23 -3 -23 20 0 14 -11 52 -25 85 -25 60 -33 120 -16 120
5 0 30 -24 55 -52z m2356 33 c23 -44 2 -131 -36 -145 -9 -4 -26 -4 -37 0 -18
6 -19 12 -13 67 6 63 26 97 57 97 10 0 23 -9 29 -19z m-4192 -58 c3 -32 2 -33
-35 -33 -22 0 -48 6 -58 14 -18 13 -17 15 15 35 49 30 74 24 78 -16z m1583
-10 c18 -29 23 -51 23 -112 0 -111 -16 -321 -25 -321 -17 0 -58 62 -63 97 -4
21 -2 70 3 108 5 39 15 114 22 168 7 53 14 97 15 97 1 0 13 -16 25 -37z m1408
26 c39 -14 44 -49 6 -49 -15 0 -31 -9 -41 -25 -20 -31 -44 -33 -44 -4 0 18 35
89 44 89 2 0 17 -5 35 -11z m-227 -116 c-2 -22 4 -57 12 -78 l16 -38 -38 -41
c-20 -22 -50 -58 -66 -79 -21 -28 -31 -35 -37 -25 -13 21 -10 99 6 161 8 32
15 75 15 96 0 21 2 40 4 42 2 2 24 3 47 3 l43 -1 -2 -40z m-2718 -3 c5 -19 15
-38 20 -42 18 -13 -15 -28 -36 -17 -49 26 -61 104 -15 97 15 -2 24 -14 31 -38z
m623 -57 c-4 -43 -7 -46 -42 -37 -46 11 -27 74 22 74 20 0 23 -4 20 -37z
m1153 -38 c0 -18 -5 -25 -20 -25 -15 0 -20 7 -20 25 0 18 5 25 20 25 15 0 20
-7 20 -25z m2139 11 c7 -8 16 -28 21 -45 7 -25 5 -33 -9 -40 -10 -6 -25 -36
-34 -70 -16 -56 -19 -61 -45 -61 -15 0 -33 -5 -40 -12 -27 -27 -11 45 21 90
26 39 32 56 31 100 0 47 2 52 22 52 12 0 27 -6 33 -14z m-1589 -46 c15 -36 7
-63 -17 -58 -24 4 -32 88 -10 88 8 0 20 -13 27 -30z m-2040 -55 c0 -41 -2 -45
-25 -45 -23 0 -25 4 -25 45 0 41 2 45 25 45 23 0 25 -4 25 -45z m3750 19 c0
-21 -4 -25 -22 -22 -15 2 -24 11 -26 26 -3 18 1 22 22 22 21 0 26 -5 26 -26z
m-3354 -36 c42 -45 59 -98 78 -235 5 -35 3 -43 -9 -43 -26 0 -64 49 -87 113
-12 33 -37 75 -55 93 -18 18 -33 36 -33 40 0 3 12 21 28 39 29 35 41 34 78 -7z
m1072 14 c2 -13 -2 -29 -8 -37 -19 -23 -40 -6 -40 32 0 30 3 34 23 31 14 -2
23 -11 25 -26z m-334 -44 c16 -22 22 -68 9 -68 -18 0 -43 36 -43 62 0 34 13
36 34 6z m630 -81 c23 -17 32 -86 14 -109 -12 -17 -15 -17 -45 2 -35 21 -49
55 -39 95 7 28 40 34 70 12z m-1221 -19 c34 -16 29 -33 -9 -33 -22 0 -30 5
-32 23 -4 25 3 27 41 10z m2381 -31 c36 -26 -9 -134 -52 -125 -19 4 -19 11 0
86 13 54 22 61 52 39z m576 -10 c0 -32 -27 -67 -52 -67 -18 0 -20 4 -14 32 8
39 23 58 47 58 13 0 19 -7 19 -23z m-2892 -65 c6 -9 12 -28 12 -44 0 -27 -2
-28 -45 -28 -54 0 -62 12 -41 62 13 30 19 35 38 31 13 -3 29 -13 36 -21z
m1214 -204 c16 -12 16 -17 -3 -73 -12 -33 -23 -62 -25 -65 -10 -10 -23 27 -29
84 -4 34 -9 69 -12 79 -4 17 -3 17 24 3 15 -8 36 -20 45 -28z m306 -31 c-2
-24 -8 -32 -22 -32 -29 0 -42 28 -28 60 10 22 15 24 33 15 15 -9 19 -19 17
-43z m-730 -125 c4 -27 -37 -122 -53 -122 -7 0 -18 6 -25 14 -9 12 -5 27 22
75 33 62 50 72 56 33z m-1253 -32 c-21 -23 -85 -28 -85 -7 0 22 11 27 58 27
44 0 45 0 27 -20z m3123 -47 c3 -18 -2 -23 -18 -23 -26 0 -54 26 -45 40 4 6
19 10 33 8 19 -2 28 -10 30 -25z m-733 -38 c0 -21 -5 -31 -19 -33 -28 -6 -39
11 -25 42 17 36 44 30 44 -9z m-2149 -67 c-8 -41 -19 -52 -45 -43 -28 9 -28
47 2 61 41 21 50 17 43 -18z m2094 -63 c0 -33 -2 -35 -35 -35 -40 0 -40 1 -20
40 9 18 24 30 35 30 16 0 20 -7 20 -35z m980 -26 c0 -29 -13 -39 -25 -18 -10
15 4 61 15 54 6 -3 10 -19 10 -36z m-2904 -38 c12 -24 30 -50 39 -58 24 -17
16 -24 -37 -29 -97 -11 -108 -15 -122 -41 -13 -26 -14 -26 -25 -5 -15 28 -6
48 36 73 43 27 67 63 60 90 -10 39 27 16 49 -30z m259 18 c95 -36 141 -34 173
6 29 37 42 14 35 -61 l-6 -62 -34 23 c-18 13 -55 28 -81 33 -66 14 -162 25
-162 19 0 -3 12 -28 26 -56 19 -35 28 -72 32 -121 l5 -70 29 25 c17 14 42 25
59 25 16 0 29 4 29 9 0 12 -28 41 -40 41 -12 0 -20 28 -14 45 9 22 51 -9 75
-56 27 -54 25 -65 -15 -66 -18 -1 -43 -6 -55 -12 -23 -13 -29 -51 -8 -51 6 0
4 -5 -6 -11 -13 -8 -38 -6 -92 8 -41 10 -75 21 -75 24 0 8 38 19 68 19 31 0
28 29 -6 62 l-29 27 -33 -20 c-18 -11 -33 -19 -35 -17 -4 6 -35 71 -35 75 0 1
13 3 29 3 71 0 80 30 26 84 -40 40 -44 56 -15 56 11 0 27 11 36 25 9 14 21 25
27 25 5 0 47 -14 92 -31z m330 0 c30 -36 29 -63 -2 -67 -17 -3 -26 6 -42 39
-16 33 -18 45 -9 51 20 12 24 10 53 -23z m2369 -35 c3 -8 -1 -22 -10 -31 -18
-18 -19 -17 -28 20 -5 22 -3 27 13 27 10 0 22 -7 25 -16z m-1581 -16 c7 -20
-4 -38 -23 -38 -20 0 -53 33 -43 43 11 12 61 8 66 -5z m-365 -75 c-4 -20 -18
-26 -37 -14 -18 12 -5 31 20 31 14 0 19 -6 17 -17z m485 -62 c18 -31 49 -47
67 -36 5 3 10 1 10 -4 0 -6 -7 -11 -14 -11 -8 0 -27 -17 -42 -37 -35 -48 -53
-63 -76 -63 -15 0 -16 4 -8 26 6 14 10 44 10 67 0 88 22 111 53 58z m-318 -11
c14 -15 21 -17 31 -9 31 26 72 -129 42 -159 -17 -17 -38 -15 -45 6 -3 9 -17
32 -30 50 -29 39 -43 83 -36 112 7 25 15 25 38 0z m-545 -26 c0 -21 -4 -33
-10 -29 -5 3 -10 19 -10 36 0 16 5 29 10 29 6 0 10 -16 10 -36z m-81 -5 c14
-17 39 -45 54 -61 l28 -30 -31 -29 c-32 -31 -46 -35 -70 -19 -13 9 -12 13 9
30 19 17 21 23 11 35 -17 20 -32 19 -64 -6 -29 -23 -56 -19 -56 6 0 18 69 104
84 105 4 0 20 -14 35 -31z m504 20 c45 -12 44 -27 -4 -51 -35 -18 -124 -25
-133 -10 -8 13 23 52 48 62 29 12 44 12 89 -1z m1277 -18 c0 -5 -9 -11 -20
-14 -41 -11 -12 -97 33 -97 22 0 22 -1 -3 -20 -31 -24 -100 -28 -100 -5 0 9
-7 27 -16 40 -24 36 -15 68 21 75 17 4 40 12 50 18 24 14 35 15 35 3z m-192
-33 c7 -7 12 -22 12 -34 0 -19 -4 -21 -27 -15 -18 5 -29 16 -34 34 -6 23 -4
27 15 27 12 0 27 -5 34 -12z m-2074 -24 c20 -19 20 -35 1 -60 -15 -19 -15 -19
-35 5 -26 31 -27 71 -1 71 11 0 27 -7 35 -16z m786 1 c31 -37 -25 -103 -76
-91 -33 9 -28 36 10 55 16 7 31 22 33 32 6 23 16 24 33 4z m946 -10 c12 -18
15 -38 11 -71 -7 -64 -17 -71 -66 -43 -38 21 -53 39 -33 39 5 0 19 23 32 50
13 28 27 50 31 50 5 0 16 -11 25 -25z m-1666 -100 c0 -31 -3 -35 -26 -35 -30
0 -64 16 -64 31 0 10 55 38 78 39 7 0 12 -13 12 -35z m546 21 c3 -8 -2 -25
-10 -38 -9 -14 -13 -28 -9 -31 3 -4 -1 -7 -11 -7 -25 0 -30 26 -10 59 20 34
32 39 40 17z m344 -11 c0 -18 -5 -25 -20 -25 -15 0 -20 7 -20 25 0 18 5 25 20
25 15 0 20 -7 20 -25z m508 -9 c2 -15 -2 -41 -9 -58 -10 -25 -14 -27 -26 -15
-21 21 -7 109 16 105 9 -2 17 -15 19 -32z m469 -32 c11 -18 13 -28 5 -36 -13
-13 -32 -2 -32 18 0 16 -9 18 -43 5 -13 -5 -30 -5 -37 -1 -11 7 -9 15 10 43
l24 35 29 -20 c15 -11 35 -31 44 -44z m203 25 c0 -27 -3 -29 -38 -29 -21 0
-47 6 -58 14 -18 14 -17 16 25 34 53 24 71 19 71 -19z m-1025 -9 c4 -6 -10
-25 -31 -43 -21 -17 -46 -40 -57 -51 -16 -15 -21 -16 -28 -5 -15 24 -10 58 11
77 33 28 93 41 105 22z m113 -32 c23 -23 13 -38 -23 -38 -31 0 -35 3 -35 25 0
19 5 25 23 25 13 0 28 -5 35 -12z m1052 -23 c0 -42 -17 -46 -49 -9 -25 29 -17
44 27 44 19 0 22 -5 22 -35z m-954 5 c24 -10 26 -14 20 -50 -5 -33 -3 -41 16
-54 28 -20 12 -41 -40 -51 -20 -4 -43 -11 -49 -17 -19 -16 -16 -56 8 -98 28
-49 20 -70 -26 -70 -31 0 -35 3 -35 26 0 15 -5 45 -12 67 -11 37 -10 41 11 58
l23 19 -30 30 c-24 24 -39 30 -71 30 l-41 0 0 45 c0 56 10 57 86 6 100 -67
146 -63 109 9 -9 17 -14 38 -11 46 6 17 7 17 42 4z m462 -2 c-8 -22 -36 -34
-50 -20 -10 10 -10 15 2 22 21 14 52 12 48 -2z m-122 -13 c7 -18 -14 -47 -27
-39 -5 3 -9 16 -9 30 0 27 27 34 36 9z m-786 -15 c11 -7 12 -12 3 -21 -15 -15
-43 -5 -43 16 0 17 18 19 40 5z m655 -15 c0 -5 -13 -12 -30 -15 -29 -5 -30 -7
-33 -63 -2 -31 -5 -57 -7 -57 -15 0 -55 25 -60 38 -9 23 14 80 38 97 24 17 92
17 92 0z m-537 -55 c29 0 32 -3 32 -30 0 -32 -22 -50 -63 -50 -17 0 -26 7 -30
23 -3 12 -9 33 -13 46 -6 22 -5 24 17 18 13 -4 39 -7 57 -7z m-156 -231 c18
-10 48 -65 48 -89 0 -22 -40 11 -60 50 -28 55 -26 59 12 39z"/>
<path d="M3456 6694 c-3 -12 -2 -32 3 -45 8 -21 10 -22 16 -7 4 10 3 30 -2 45
-9 26 -10 27 -17 7z"/>
<path d="M7460 5985 c0 -20 -13 -103 -30 -185 -16 -82 -30 -173 -30 -202 0
-59 25 -122 59 -153 l22 -19 -8 64 c-13 105 -6 198 26 359 17 84 31 156 31
162 0 5 -16 9 -35 9 -33 0 -35 -2 -35 -35z"/>
<path d="M9322 5118 c-20 -20 -15 -86 7 -98 32 -17 39 -12 43 33 7 64 -18 97
-50 65z"/>
<path d="M2630 8175 c-146 -51 -274 -107 -488 -214 -109 -54 -295 -137 -414
-185 -352 -139 -432 -186 -591 -350 -112 -115 -198 -221 -378 -466 -243 -332
-398 -510 -641 -736 l-118 -109 0 -92 c0 -90 1 -93 23 -93 30 1 45 14 97 85
24 33 114 132 200 220 349 358 359 370 475 562 262 434 401 585 653 712 34 17
151 68 260 113 252 103 299 127 517 263 210 131 257 156 360 190 101 34 207
36 286 6 59 -23 146 -89 132 -101 -4 -4 -33 -15 -63 -25 -30 -9 -185 -66 -345
-125 -159 -60 -328 -118 -374 -130 -98 -25 -153 -51 -175 -82 -24 -33 -5 -43
82 -42 92 0 117 8 292 90 74 34 185 77 245 94 160 45 189 57 306 126 216 128
337 125 497 -12 87 -74 123 -94 292 -159 158 -61 240 -103 283 -143 30 -29 34
-24 12 17 -23 45 -114 122 -216 181 -52 30 -120 81 -151 112 -34 32 -74 62
-96 68 -20 7 -93 42 -162 78 -69 36 -135 65 -148 64 -13 -1 -54 -15 -92 -32
-38 -16 -80 -30 -95 -30 -15 0 -48 17 -78 40 -49 36 -259 140 -282 139 -5 0
-53 -15 -105 -34z"/>
<path d="M1780 7530 c0 -21 33 -76 70 -116 43 -47 70 -95 80 -139 8 -41 150
-155 252 -204 87 -42 98 -54 157 -168 40 -76 115 -163 141 -163 6 0 8 11 4 28
-39 176 -93 249 -294 393 -131 94 -161 122 -215 204 -53 80 -81 111 -142 153
-35 24 -53 28 -53 12z"/>
<path d="M5055 5832 c-74 -24 -125 -92 -125 -166 0 -34 2 -37 22 -30 28 9 45
30 54 69 3 17 13 42 20 58 13 24 20 27 67 28 69 1 101 11 105 32 3 15 -5 17
-60 16 -35 -1 -72 -4 -83 -7z"/>
<path d="M11054 5536 c-204 -47 -295 -118 -486 -376 -46 -63 -111 -139 -143
-168 -51 -47 -55 -52 -29 -46 84 20 130 59 236 197 60 79 111 134 152 164 111
83 284 153 376 153 93 0 183 -53 210 -124 16 -42 14 -151 -4 -227 -8 -36 -44
-148 -80 -248 -76 -210 -96 -282 -96 -341 0 -38 2 -41 23 -35 32 10 38 18 77
98 37 77 43 81 131 92 59 7 113 43 169 113 88 109 112 132 168 158 156 74 305
19 331 -121 19 -102 -11 -192 -122 -369 -70 -112 -97 -178 -104 -252 -6 -64
-6 -64 20 -64 15 0 51 9 82 21 86 32 138 91 224 257 81 157 128 217 199 257
43 25 53 27 124 21 62 -5 79 -3 92 10 21 20 20 26 -4 57 -44 56 -129 59 -236
8 -79 -37 -123 -89 -185 -218 -70 -144 -112 -209 -151 -233 -46 -28 -53 -25
-25 13 14 17 38 59 55 92 132 265 114 543 -42 640 -41 25 -62 30 -124 34 -41
2 -92 -2 -112 -8 -47 -14 -123 -81 -191 -169 -77 -98 -119 -141 -161 -163 -43
-22 -72 -25 -65 -6 2 6 20 62 40 122 136 421 60 655 -216 671 -41 2 -98 -2
-133 -10z"/>
<path d="M0 5148 l1 -93 60 -45 c79 -59 264 -249 365 -375 44 -55 141 -181
215 -280 206 -277 267 -347 351 -401 156 -100 284 -222 399 -378 l59 -80 0 40
c-1 156 -86 280 -313 460 -220 174 -259 219 -412 474 -48 80 -117 183 -154
230 -126 162 -384 412 -525 509 l-46 32 0 -93z"/>
<path d="M3458 4800 c-46 -68 -53 -100 -52 -245 1 -124 7 -167 48 -373 25
-128 54 -294 63 -369 16 -127 16 -148 0 -342 -22 -265 -22 -323 4 -407 67
-220 210 -364 358 -364 68 0 91 12 75 37 -9 14 -27 19 -88 21 l-76 3 -27 42
c-15 23 -55 97 -89 163 -92 181 -94 202 -63 553 16 185 8 247 -76 575 -82 320
-89 378 -69 541 8 69 14 140 12 157 l-3 33 -17 -25z"/>
<path d="M12720 4559 c18 -60 22 -173 10 -239 -18 -101 -33 -137 -176 -433
-270 -558 -304 -671 -404 -1367 -46 -324 -70 -454 -106 -589 -103 -383 -384
-814 -640 -984 -40 -26 -163 -96 -274 -157 -201 -110 -326 -187 -317 -197 10
-9 178 28 265 59 216 76 462 234 609 391 125 134 285 387 352 555 59 150 95
307 166 712 26 146 62 333 82 415 19 83 50 227 68 322 52 262 107 414 270 758
139 293 170 400 170 593 l0 134 -33 29 c-42 38 -53 37 -42 -2z"/>
<path d="M9574 4536 c-11 -29 1 -51 29 -54 23 -3 27 0 27 20 0 41 -44 66 -56
34z"/>
<path d="M3706 4450 c-8 -91 -2 -219 25 -525 10 -121 20 -292 22 -380 2 -143
5 -165 26 -208 19 -40 56 -77 65 -65 9 12 -23 340 -89 907 -25 213 -25 227
-10 262 21 45 17 69 -11 80 -21 7 -22 4 -28 -71z"/>
<path d="M10042 4485 c-18 -23 -27 -25 -95 -25 -89 0 -123 -11 -132 -41 -18
-56 68 -64 182 -17 137 56 250 39 426 -66 181 -107 233 -126 525 -187 303 -63
352 -83 578 -245 72 -52 160 -109 196 -128 62 -32 173 -64 185 -53 11 12 -24
63 -63 92 -23 16 -82 51 -130 77 -49 26 -145 79 -213 118 -255 143 -461 216
-646 229 -135 9 -167 23 -255 112 -105 105 -151 122 -381 139 -78 6 -146 13
-150 16 -4 2 -16 -7 -27 -21z"/>
<path d="M12378 4443 c-59 -9 -27 -32 194 -141 15 -7 -12 72 -33 94 -31 33
-106 54 -161 47z"/>
<path d="M9580 4399 c0 -6 -9 -8 -20 -4 -21 7 -28 -9 -9 -20 18 -12 59 4 53
20 -7 17 -24 20 -24 4z"/>
<path d="M4100 3968 c0 -7 9 -193 20 -413 11 -220 21 -508 21 -640 1 -176 4
-248 14 -272 14 -34 50 -60 60 -43 3 5 11 86 17 180 9 129 9 220 0 378 -19
332 -78 797 -103 813 -20 12 -29 11 -29 -3z"/>
<path d="M4624 3403 c-10 -10 -12 -19 -6 -21 14 -4 52 16 52 28 0 16 -27 11
-46 -7z"/>
<path d="M8901 3326 c-34 -233 -51 -419 -76 -866 -39 -678 -59 -873 -120
-1157 -41 -191 -102 -369 -176 -515 l-30 -60 42 23 c55 31 120 107 157 183 37
75 115 319 141 441 50 229 68 486 76 1125 6 435 16 661 36 788 10 65 3 94 -25
105 -11 4 -16 -11 -25 -67z"/>
<path d="M3870 3108 c0 -25 74 -118 94 -119 58 -3 86 11 86 42 0 15 -7 19 -33
19 -26 0 -41 8 -66 35 -31 34 -81 49 -81 23z"/>
<path d="M4870 2930 c-12 -8 -10 -10 9 -10 18 0 22 -4 16 -17 -11 -28 -11 -46
1 -50 12 -4 34 39 34 67 0 22 -33 27 -60 10z"/>
<path d="M4840 2803 c0 -16 6 -23 20 -23 14 0 20 7 20 23 0 16 -6 23 -20 23
-14 0 -20 -7 -20 -23z"/>
<path d="M8550 2644 c-11 -25 -20 -47 -20 -50 0 -2 -40 -97 -90 -212 -159
-371 -223 -566 -255 -777 -16 -110 -21 -415 -6 -400 17 18 52 139 83 291 l31
151 47 -5 c26 -2 64 1 83 7 46 16 121 82 152 135 24 41 49 136 36 136 -3 -1
-34 -38 -68 -84 -49 -66 -72 -89 -114 -110 -64 -32 -109 -35 -109 -7 0 62 57
238 184 571 53 140 106 322 106 366 0 18 -17 34 -36 34 -3 0 -14 -21 -24 -46z"/>
<path d="M4902 2635 c-32 -66 -30 -85 11 -85 l32 0 0 62 c0 34 -5 63 -10 65
-6 2 -21 -17 -33 -42z"/>
<path d="M5102 2595 c-22 -48 -16 -65 24 -65 l35 0 -3 43 c-2 34 -7 43 -24 45
-14 2 -24 -5 -32 -23z"/>
<path d="M3624 2290 c14 -506 65 -807 173 -1025 27 -54 102 -159 109 -152 2 2
-3 24 -12 48 -49 139 -91 362 -154 834 -63 465 -77 534 -114 535 -5 0 -6 -98
-2 -240z"/>
<path d="M5388 2483 l23 -16 -22 -23 c-26 -28 -19 -54 15 -54 26 0 39 16 49
61 6 23 3 27 -32 37 -51 16 -61 14 -33 -5z"/>
<path d="M5155 2401 c-6 -6 -32 -11 -60 -13 -42 -3 -50 -6 -53 -24 -3 -19 3
-22 60 -27 35 -3 74 -9 87 -13 23 -7 24 -5 18 26 -11 50 -32 71 -52 51z"/>
<path d="M6150 2375 c0 -21 28 -75 39 -75 5 0 11 14 15 31 4 24 2 35 -11 45
-24 18 -43 17 -43 -1z"/>
<path d="M7632 2354 c2 -9 27 -37 56 -62 52 -45 52 -45 52 -18 0 34 -24 82
-45 90 -33 12 -67 7 -63 -10z"/>
<path d="M7442 2250 c-56 -52 -60 -61 -37 -80 10 -9 15 -9 15 -1 0 7 20 11 53
11 44 0 54 -3 62 -22 7 -15 24 -26 53 -33 69 -16 77 -65 11 -65 -46 0 -38 -32
11 -48 55 -17 56 -17 80 26 38 67 97 86 174 56 22 -8 21 18 -2 46 -18 22 -102
60 -133 60 -8 0 -23 -16 -32 -35 -9 -19 -23 -35 -30 -35 -8 0 -33 23 -56 50
-33 39 -49 50 -72 50 -21 0 -29 5 -29 18 0 10 5 23 11 29 7 7 5 12 -9 15 -13
4 -35 -10 -70 -42z"/>
<path d="M5122 2268 c-14 -14 13 -37 46 -38 27 0 29 25 3 40 -25 13 -34 13
-49 -2z"/>
<path d="M7803 2273 c-23 -9 -13 -29 22 -46 45 -22 52 -21 65 3 8 15 7 21 -7
28 -26 13 -66 21 -80 15z"/>
<path d="M6240 2251 c0 -27 32 -39 60 -21 13 8 12 11 -5 24 -28 22 -55 20 -55
-3z"/>
<path d="M7293 2263 c-16 -6 -17 -39 -2 -48 16 -11 59 4 59 20 0 12 -31 37
-42 34 -2 0 -9 -3 -15 -6z"/>
<path d="M8010 2199 c0 -38 1 -39 34 -39 38 0 66 21 66 50 0 20 -18 28 -67 28
-32 1 -33 -1 -33 -39z"/>
<path d="M5595 2155 c-24 -20 -27 -27 -16 -34 10 -6 21 -1 37 19 40 47 28 55
-21 15z"/>
<path d="M6470 2156 c0 -34 78 -63 96 -35 10 17 -17 36 -58 42 -27 4 -38 2
-38 -7z"/>
<path d="M5435 2134 c-23 -18 -27 -26 -17 -36 6 -6 13 -10 14 -7 2 2 13 16 26
30 31 35 15 44 -23 13z"/>
<path d="M7467 2133 c-4 -3 -7 -30 -7 -60 0 -50 2 -53 25 -53 46 0 63 77 23
104 -25 18 -32 19 -41 9z"/>
<path d="M7242 2065 c10 -23 8 -29 -20 -58 -36 -37 -40 -52 -14 -60 9 -2 25
-8 34 -12 14 -5 18 1 23 32 6 37 16 70 30 106 6 14 1 17 -29 17 -34 0 -35 -1
-24 -25z"/>
<path d="M5808 2054 c-16 -8 -28 -18 -28 -22 0 -4 43 -8 95 -9 52 -1 95 2 95
7 0 36 -111 52 -162 24z"/>
<path d="M5410 2020 c0 -15 7 -20 25 -20 18 0 25 5 25 20 0 15 -7 20 -25 20
-18 0 -25 -5 -25 -20z"/>
<path d="M7382 2019 c-12 -19 -11 -20 20 -17 22 2 34 9 36 21 5 25 -40 22 -56
-4z"/>
<path d="M7669 1981 c-23 -18 -23 -19 -5 -46 l19 -28 13 24 c15 27 18 69 5 69
-5 0 -19 -8 -32 -19z"/>
<path d="M5495 1953 c-16 -16 -16 -17 1 -30 27 -20 87 -16 118 8 14 11 26 25
26 30 0 5 -29 9 -64 9 -47 0 -69 -5 -81 -17z"/>
<path d="M7105 1940 c-4 -7 -3 -16 3 -22 14 -14 45 -2 40 15 -6 16 -34 21 -43
7z"/>
<path d="M7485 1940 c-1 -3 -5 -17 -9 -32 -5 -23 -3 -26 10 -21 12 4 25 -3 41
-23 15 -19 23 -24 23 -13 0 8 -5 20 -12 27 -9 9 -7 13 8 17 33 11 49 22 52 36
2 11 -11 14 -54 14 -31 0 -57 -2 -59 -5z"/>
<path d="M6116 1883 c-38 -42 -42 -61 -11 -49 8 3 20 17 25 31 11 30 37 42 53
26 8 -8 5 -22 -11 -56 l-22 -45 28 0 c16 0 36 6 46 13 17 12 17 15 1 55 -11
26 -28 48 -44 56 -25 12 -28 10 -65 -31z"/>
<path d="M6351 1865 c-39 -39 -34 -71 6 -33 14 13 29 31 34 40 16 31 -5 27
-40 -7z"/>
<path d="M5872 1858 c2 -18 10 -24 36 -26 30 -3 33 -1 30 20 -2 18 -10 24 -36
26 -30 3 -33 1 -30 -20z"/>
<path d="M6590 1855 c0 -18 5 -25 20 -25 15 0 20 7 20 25 0 18 -5 25 -20 25
-15 0 -20 -7 -20 -25z"/>
<path d="M6812 1868 c-20 -20 -14 -25 33 -32 56 -9 85 0 85 25 0 16 -7 19 -53
19 -29 0 -58 -5 -65 -12z"/>
<path d="M7050 1866 c0 -8 24 -38 53 -67 l53 -54 28 30 28 30 -30 3 c-33 3
-76 42 -54 49 28 10 9 23 -33 23 -32 0 -45 -4 -45 -14z"/>
<path d="M6430 1793 c0 -22 22 -43 63 -61 23 -10 29 -9 33 3 4 8 3 22 0 31 -4
11 1 18 14 21 11 3 20 10 20 15 0 6 -6 8 -14 5 -39 -15 -87 -18 -101 -7 -12
10 -15 9 -15 -7z"/>
<path d="M6596 1762 c-10 -20 -11 -33 -4 -46 9 -17 11 -17 25 3 l15 22 34 -21
c31 -20 54 -20 54 -2 0 4 -14 13 -31 19 -17 7 -33 21 -36 32 -8 30 -40 26 -57
-7z"/>
<path d="M6790 1711 c0 -15 30 -21 51 -11 27 15 24 20 -16 20 -19 0 -35 -4
-35 -9z"/>
<path d="M9420 1566 c-157 -58 -318 -184 -452 -351 -65 -82 -370 -516 -426
-607 -21 -35 -51 -85 -66 -111 -27 -48 -56 -67 -101 -67 -13 0 -27 -5 -30 -10
-7 -12 13 -42 24 -36 3 2 123 10 266 16 475 23 843 -19 1211 -136 67 -21 190
-75 308 -134 195 -98 287 -130 372 -130 41 0 154 29 154 39 0 9 -331 183 -460
241 -612 278 -1113 346 -1571 215 -67 -20 -124 -34 -126 -31 -2 2 9 15 24 29
130 118 162 151 205 216 27 41 87 151 135 245 148 294 167 317 359 442 116 75
187 133 205 166 5 10 8 18 7 17 -2 0 -19 -6 -38 -13z"/>
<path d="M5980 1485 c-593 -37 -710 -52 -950 -122 -85 -25 -250 -69 -366 -98
-116 -28 -236 -64 -268 -78 -31 -14 -103 -59 -159 -100 -120 -87 -240 -156
-409 -236 -221 -105 -414 -157 -838 -226 -735 -120 -864 -153 -1113 -283 -168
-88 -219 -106 -347 -126 -58 -8 -132 -23 -165 -31 -74 -20 -171 -63 -161 -72
14 -14 132 -20 226 -12 122 11 228 43 471 140 108 43 229 87 270 99 143 40
351 67 699 90 564 39 715 91 1181 410 248 170 341 225 486 287 139 60 439 167
593 212 289 84 384 94 585 61 177 -28 256 -28 375 1 87 21 118 23 380 23 312
1 401 -8 639 -65 236 -56 382 -108 809 -288 169 -71 337 -141 375 -155 l67
-25 -14 28 c-36 69 -128 130 -298 195 -64 25 -188 79 -275 120 -205 96 -264
120 -392 156 -129 37 -258 64 -416 86 -165 23 -685 27 -985 9z"/>
<path d="M10911 420 c-40 -66 -81 -144 -92 -175 -22 -64 -24 -150 -4 -185 9
-16 14 -19 15 -9 0 8 38 94 85 190 97 197 112 241 96 276 -6 13 -15 23 -20 23
-5 0 -41 -54 -80 -120z"/>
</g>
</svg>
